<svg width="15" height="14" viewBox="0 0 15 14" fill="none" xmlns="http://www.w3.org/2000/svg">
<path d="M11.4053 8.2131L11.4053 8.21314C11.0467 8.51314 10.8856 8.98892 10.9972 9.4459L11.9166 13.2086C11.9402 13.3051 11.9052 13.3905 11.8225 13.4492C11.7387 13.5086 11.6314 13.5202 11.5308 13.4603L8.14952 11.4439C8.14951 11.4439 8.14951 11.4439 8.14951 11.4439C7.75022 11.2058 7.24982 11.2057 6.85054 11.4439C6.85053 11.4439 6.85053 11.4439 6.85052 11.4439L3.46919 13.4603C3.36859 13.5202 3.26137 13.5086 3.17753 13.4492C3.09479 13.3905 3.05986 13.3051 3.08344 13.2086L4.00278 9.4459C4.11444 8.98899 3.95346 8.51318 3.59475 8.21313L3.59471 8.2131L0.585559 5.69661C0.585558 5.69661 0.585557 5.69661 0.585556 5.69661C0.435773 5.57134 0.490674 5.30368 0.734486 5.2846L4.68404 4.97547C5.14708 4.93923 5.55799 4.65235 5.74156 4.22147L7.26317 0.649827C7.30398 0.554031 7.39092 0.5 7.50002 0.5C7.60911 0.5 7.69605 0.554029 7.73686 0.649822C7.73687 0.649824 7.73687 0.649826 7.73687 0.649828L9.25844 4.22146L9.25849 4.22157C9.44212 4.65234 9.85297 4.93923 10.316 4.97547L14.2655 5.2846C14.5093 5.30368 14.5642 5.57134 14.4144 5.69661L11.4053 8.2131Z" stroke="#29180F"/>
</svg>
