<svg width="43" height="28" viewBox="0 0 43 28" fill="none" xmlns="http://www.w3.org/2000/svg">
<path d="M39.2989 7.24983H33.4337C33.4051 7.25103 33.3764 7.24863 33.3484 7.24324C33.3204 7.23785 33.2935 7.22946 33.2673 7.21808C33.2411 7.2067 33.2162 7.19292 33.193 7.17615C33.1698 7.15937 33.1491 7.1408 33.1302 7.11924C33.1113 7.09827 33.0955 7.07491 33.0821 7.05035C33.0681 7.02519 33.0577 6.99943 33.0498 6.97247C33.0419 6.94551 33.0376 6.91736 33.0358 6.8892C33.0346 6.86165 33.0358 6.83349 33.0407 6.80594L33.8493 0.693861C33.8535 0.666305 33.8554 0.638749 33.8542 0.610594C33.8523 0.582439 33.8481 0.554883 33.8401 0.527926C33.8322 0.500968 33.8219 0.475209 33.8085 0.450648C33.7951 0.426087 33.7792 0.402725 33.7603 0.381758C33.7414 0.360192 33.7207 0.341622 33.6982 0.324849C33.675 0.308075 33.6506 0.293698 33.6244 0.282316C33.5988 0.270935 33.5714 0.262548 33.5434 0.257156C33.516 0.251765 33.4873 0.249369 33.4587 0.249968H7.44231C7.3375 0.252364 7.23391 0.264345 7.13092 0.284712C7.02855 0.30508 6.92861 0.334433 6.83111 0.372173C6.73361 0.409913 6.64038 0.455441 6.5508 0.509355C6.46184 0.563269 6.37774 0.624372 6.29974 0.692663C6.22114 0.760955 6.14923 0.835236 6.08403 0.916108C6.01883 0.99638 5.96154 1.08204 5.91158 1.1725C5.86161 1.26296 5.81956 1.35701 5.78666 1.45465C5.75314 1.5523 5.72877 1.65234 5.71353 1.75417L5.55083 2.98222H15.5804C15.6743 2.97982 15.7681 2.98761 15.8601 3.00558C15.9527 3.02355 16.0423 3.05111 16.1282 3.08825C16.2148 3.12539 16.2958 3.17152 16.372 3.22663C16.4476 3.28114 16.517 3.34404 16.5786 3.41353C16.6407 3.48362 16.6943 3.5591 16.7388 3.64057C16.7839 3.72204 16.8193 3.80771 16.8449 3.89696C16.8711 3.98622 16.8863 4.07668 16.8918 4.16953C16.8973 4.26178 16.8918 4.35404 16.8766 4.44569C16.8613 4.54453 16.8376 4.64158 16.8053 4.73683C16.7723 4.83148 16.7315 4.92313 16.6828 5.01119C16.634 5.09925 16.578 5.18192 16.5146 5.2604C16.4512 5.33887 16.3811 5.41136 16.305 5.47785C16.2282 5.54374 16.1465 5.60305 16.06 5.65577C15.9729 5.70788 15.8821 5.75281 15.7876 5.78935C15.6925 5.8259 15.595 5.85465 15.4957 5.87442C15.3958 5.89419 15.2946 5.90557 15.1929 5.90856H1.54911C1.48086 5.90916 1.41383 5.91575 1.34741 5.92833C1.28038 5.94031 1.21517 5.95829 1.1518 5.98225C1.08843 6.00621 1.0281 6.03496 0.969599 6.06971C0.911709 6.10385 0.856866 6.14339 0.805679 6.18712C0.754492 6.23085 0.70818 6.27937 0.665524 6.33149C0.623478 6.38361 0.585697 6.43872 0.553401 6.49743C0.521104 6.55613 0.494292 6.61724 0.472964 6.68074C0.451636 6.74364 0.435792 6.80833 0.426652 6.87483V6.90238C0.416902 6.96169 0.413855 7.02159 0.417511 7.0821C0.421168 7.142 0.431527 7.20131 0.448589 7.25941C0.465042 7.31692 0.488198 7.37263 0.517448 7.42595C0.546088 7.47867 0.580822 7.52779 0.62104 7.57391C0.661259 7.61944 0.705743 7.66018 0.755101 7.69612C0.803851 7.73206 0.856866 7.76261 0.912318 7.78718C0.96838 7.81174 1.02627 7.83031 1.0866 7.84289C1.14632 7.85487 1.20725 7.86086 1.26819 7.86026H14.943C15.0375 7.85786 15.1307 7.86505 15.2233 7.88302C15.3153 7.90099 15.4049 7.92855 15.4915 7.96569C15.5774 8.00283 15.6584 8.04896 15.7346 8.10407C15.8102 8.15918 15.879 8.22148 15.9412 8.29157C16.0027 8.36106 16.0563 8.43714 16.1008 8.51861C16.1459 8.60008 16.1807 8.68575 16.2062 8.7744C16.2318 8.86366 16.2477 8.95472 16.2526 9.04697C16.2574 9.13982 16.2526 9.23148 16.2367 9.32313C16.2215 9.42257 16.1977 9.51962 16.1654 9.61427C16.1331 9.70952 16.0923 9.80117 16.0435 9.88923C15.9948 9.97729 15.9387 10.0606 15.8754 10.139C15.812 10.2169 15.7419 10.2894 15.6657 10.3559C15.589 10.4224 15.5073 10.4817 15.4208 10.5338C15.3336 10.5865 15.2428 10.6309 15.1478 10.6674C15.0533 10.7039 14.9558 10.7327 14.8559 10.7525C14.7559 10.7722 14.6548 10.7836 14.553 10.786H4.41131C4.34489 10.7878 4.27908 10.7956 4.21327 10.8088C4.14806 10.8219 4.08469 10.8405 4.02253 10.8645C3.96099 10.8884 3.90127 10.9178 3.8446 10.9519C3.78793 10.9861 3.7343 11.025 3.68433 11.0688C3.63437 11.1119 3.58866 11.1592 3.54723 11.2107C3.50579 11.2622 3.46923 11.3168 3.43754 11.3743C3.40585 11.4318 3.37904 11.4917 3.35771 11.5534C3.337 11.6157 3.32115 11.6792 3.3114 11.7439V11.7714C3.30165 11.8313 3.2986 11.8912 3.30226 11.9511C3.30592 12.0117 3.31628 12.0704 3.33334 12.1285C3.34979 12.1866 3.37295 12.2423 3.4022 12.295C3.43145 12.3483 3.46557 12.3974 3.50579 12.443C3.54601 12.4885 3.59049 12.5292 3.63985 12.5658C3.6886 12.6017 3.74162 12.6317 3.79707 12.6568C3.85313 12.6814 3.91102 12.7 3.97135 12.7119C4.03107 12.7245 4.092 12.7305 4.15294 12.7293H14.2977C14.3909 12.7281 14.4836 12.7365 14.575 12.7545C14.6664 12.773 14.7547 12.8012 14.84 12.8383C14.9247 12.8755 15.0052 12.9216 15.0801 12.9767C15.1551 13.0312 15.2233 13.0929 15.2843 13.1624C15.3452 13.2319 15.3982 13.3068 15.4427 13.3877C15.4872 13.4685 15.5219 13.553 15.5475 13.6411C15.5731 13.7291 15.5883 13.819 15.5938 13.9106C15.5999 14.0023 15.595 14.0933 15.5804 14.1844C15.5652 14.2832 15.5414 14.3803 15.5091 14.4755C15.4768 14.5708 15.436 14.6624 15.3879 14.7505C15.3391 14.8386 15.2831 14.9218 15.2191 15.0003C15.1557 15.0788 15.0856 15.1513 15.0094 15.2178C14.9333 15.2842 14.8516 15.3436 14.7645 15.3957C14.6773 15.4478 14.5865 15.4927 14.4915 15.5293C14.3964 15.5658 14.2989 15.594 14.199 15.6137C14.099 15.6335 13.9985 15.6449 13.8967 15.6473H3.06156C2.99514 15.6491 2.92872 15.6569 2.86352 15.67C2.79831 15.6826 2.73494 15.7018 2.67278 15.7257C2.61063 15.7497 2.55152 15.7791 2.49485 15.8132C2.43818 15.8474 2.38455 15.8863 2.33458 15.93C2.28462 15.9732 2.23891 16.0205 2.19748 16.072C2.15604 16.1229 2.11948 16.1774 2.08779 16.2349C2.0561 16.2924 2.02929 16.3523 2.00796 16.4146C1.98724 16.4769 1.9714 16.5404 1.96165 16.6051C1.9519 16.6644 1.94885 16.7244 1.95251 16.7849C1.95617 16.8448 1.96653 16.9041 1.98359 16.9622C2.00004 17.0197 2.0232 17.0754 2.05245 17.1287C2.08109 17.1814 2.11582 17.2311 2.15604 17.2767C2.19626 17.3222 2.24074 17.3629 2.2901 17.3989C2.33885 17.4348 2.39186 17.4654 2.44732 17.4899C2.50338 17.5151 2.56127 17.5331 2.6216 17.5456C2.68131 17.5582 2.74225 17.5636 2.80319 17.563H3.61426L3.12859 21.2813C3.11275 21.3754 3.10726 21.47 3.11275 21.5647C3.11823 21.6599 3.13408 21.7534 3.16028 21.845C3.18648 21.9367 3.22304 22.0247 3.26875 22.1086C3.31506 22.1925 3.3699 22.2703 3.43328 22.3422C3.49665 22.4141 3.56734 22.4782 3.64534 22.5345C3.72333 22.5908 3.80682 22.6387 3.89579 22.6771C3.98414 22.7154 4.07616 22.7436 4.17122 22.7621C4.26628 22.7801 4.36195 22.7879 4.45884 22.7855H6.52155C6.14862 25.5849 8.15771 27.854 11.0035 27.854C13.8486 27.854 16.4561 25.5849 16.829 22.7855H27.5996C27.2291 25.5849 29.2382 27.854 32.0894 27.854C34.9407 27.854 37.5421 25.5849 37.9126 22.7855H40.7802C40.8436 22.7837 40.9039 22.7717 40.9624 22.7484C41.0209 22.7256 41.074 22.6933 41.1203 22.6519C41.1672 22.61 41.2056 22.5621 41.2348 22.5076C41.2641 22.4524 41.283 22.3943 41.2915 22.3332L42.3743 14.1646L39.2989 7.24983ZM14.7523 22.885C14.7157 23.0814 14.6633 23.2737 14.5945 23.4618C14.525 23.6499 14.4409 23.8308 14.341 24.0052C14.241 24.1795 14.1271 24.3442 13.9991 24.4994C13.8718 24.6545 13.7316 24.7989 13.5793 24.9313C13.4269 25.0631 13.2648 25.1823 13.0924 25.2883C12.9193 25.3938 12.7395 25.4848 12.5513 25.5609C12.3636 25.637 12.1704 25.6969 11.9724 25.7412C11.7743 25.7855 11.5738 25.8137 11.3709 25.8251C11.2691 25.8311 11.1674 25.8311 11.0656 25.8263C10.9638 25.8209 10.8627 25.8095 10.7621 25.7927C10.6616 25.776 10.5623 25.7538 10.4642 25.7256C10.3667 25.6975 10.2704 25.6645 10.1765 25.6256C10.0827 25.5867 9.9913 25.5429 9.90233 25.4938C9.81336 25.4447 9.72744 25.3908 9.64518 25.3321C9.5623 25.2733 9.48308 25.2105 9.40813 25.1428C9.33257 25.0751 9.26188 25.0032 9.19485 24.9277C9.12782 24.8522 9.06567 24.7725 9.00778 24.6899C8.9505 24.6072 8.89748 24.5215 8.84995 24.4329C8.80242 24.3442 8.75976 24.2538 8.72259 24.1603C8.68542 24.0669 8.65373 23.9716 8.62814 23.8746C8.60194 23.7775 8.58183 23.6793 8.5672 23.5804C8.55258 23.481 8.54344 23.3816 8.54039 23.2809C8.53795 23.1809 8.54039 23.0808 8.54953 22.9808C8.55806 22.8808 8.57269 22.7819 8.5928 22.6837C8.62875 22.4872 8.68116 22.2955 8.75001 22.108C8.81887 21.9205 8.90297 21.7402 9.00229 21.5664C9.10162 21.3927 9.21496 21.228 9.34232 21.0728C9.46968 20.9177 9.60861 20.7739 9.76035 20.6415C9.91208 20.5091 10.0736 20.3905 10.2454 20.2845C10.4172 20.1785 10.5964 20.0874 10.7835 20.0113C10.9706 19.9346 11.1631 19.8741 11.3605 19.8292C11.558 19.7843 11.7579 19.7555 11.9602 19.7436C12.0619 19.737 12.1643 19.7364 12.2667 19.7412C12.3684 19.7459 12.4702 19.7567 12.5708 19.7729C12.6719 19.7891 12.7712 19.8112 12.87 19.8388C12.9681 19.8664 13.0643 19.8993 13.1588 19.9382C13.2532 19.9766 13.3453 20.0203 13.4348 20.0694C13.5244 20.118 13.6103 20.1719 13.6932 20.2306C13.7767 20.2893 13.8559 20.3522 13.9315 20.4199C14.007 20.4876 14.0789 20.5595 14.146 20.6349C14.2136 20.711 14.2758 20.7901 14.3343 20.8728C14.3922 20.956 14.4452 21.0417 14.4933 21.1303C14.5415 21.219 14.5841 21.3107 14.6213 21.4041C14.6584 21.4976 14.6901 21.5934 14.7163 21.6905C14.7425 21.7875 14.7633 21.8857 14.7779 21.9858C14.7925 22.0852 14.8017 22.1853 14.8047 22.2859C14.8077 22.3859 14.8047 22.4866 14.7962 22.5866C14.787 22.6873 14.773 22.7867 14.7523 22.885ZM35.8328 22.885C35.7968 23.0814 35.7444 23.2731 35.6756 23.4606C35.6067 23.6481 35.5226 23.8284 35.4233 24.0022C35.324 24.1759 35.2106 24.3406 35.0833 24.4958C34.9565 24.6509 34.817 24.7947 34.6652 24.9271C34.5135 25.0595 34.352 25.1781 34.1802 25.2841C34.0089 25.3902 33.8292 25.4812 33.6421 25.5573C33.455 25.634 33.2625 25.6945 33.065 25.7394C32.8676 25.7843 32.6677 25.8125 32.4654 25.8251C32.3636 25.8311 32.2619 25.8311 32.1601 25.8263C32.0584 25.8209 31.9572 25.8095 31.8566 25.7927C31.7561 25.776 31.6568 25.7538 31.5593 25.7256C31.4612 25.6975 31.3655 25.6645 31.271 25.6256C31.1772 25.5867 31.0858 25.5429 30.9968 25.4938C30.9079 25.4447 30.8219 25.3908 30.7397 25.3321C30.6568 25.2733 30.5782 25.2105 30.5026 25.1428C30.4277 25.0751 30.3564 25.0032 30.2894 24.9277C30.2223 24.8522 30.1602 24.7725 30.1029 24.6899C30.045 24.6072 29.992 24.5215 29.9445 24.4329C29.8969 24.3442 29.8543 24.2538 29.8171 24.1603C29.7799 24.0669 29.7488 23.9716 29.7226 23.8746C29.6964 23.7775 29.6763 23.6793 29.6617 23.5804C29.6471 23.481 29.6385 23.3816 29.6355 23.2809C29.6325 23.1809 29.6355 23.0808 29.644 22.9808C29.6526 22.8808 29.6672 22.7819 29.6873 22.6837C29.7239 22.4872 29.7763 22.2955 29.8451 22.108C29.9134 21.9205 29.9975 21.7402 30.0968 21.5664C30.1961 21.3927 30.3095 21.228 30.4368 21.0728C30.5642 20.9177 30.7037 20.7739 30.8548 20.6415C31.0066 20.5091 31.1681 20.3905 31.3399 20.2845C31.5117 20.1785 31.6909 20.0874 31.8786 20.0113C32.0657 19.9346 32.2576 19.8741 32.4551 19.8292C32.6525 19.7843 32.8524 19.7555 33.0547 19.7436C33.1564 19.7376 33.2582 19.737 33.36 19.7424C33.4617 19.7477 33.5629 19.7591 33.6634 19.7759C33.764 19.7927 33.8633 19.8148 33.9614 19.843C34.0589 19.8705 34.1552 19.9041 34.249 19.943C34.3429 19.982 34.4349 20.0257 34.5232 20.0748C34.6122 20.1239 34.6981 20.1779 34.781 20.2366C34.8633 20.2953 34.9425 20.3582 35.0174 20.4259C35.093 20.4936 35.1637 20.5654 35.2307 20.6409C35.2978 20.7164 35.3599 20.7961 35.4178 20.8787C35.4757 20.9614 35.5281 21.0471 35.5756 21.1351C35.6238 21.2238 35.6658 21.3148 35.703 21.4083C35.7402 21.5018 35.7718 21.597 35.798 21.694C35.8236 21.7911 35.8444 21.8893 35.8584 21.9882C35.873 22.0876 35.8821 22.1871 35.8852 22.2877C35.8882 22.3877 35.8852 22.4878 35.8767 22.5878C35.8675 22.6879 35.8535 22.7867 35.8328 22.885ZM32.0925 14.173L32.6787 9.75624H37.9516L39.9777 14.1928L32.0925 14.173Z" fill="#3A2215"/>
</svg>
